<svg xmlns="http://www.w3.org/2000/svg" width="65px" height="65px" fill="white" viewBox="0 0 750.77 280.41"><path d="M24,48.38A24.33,24.33,0,0,1,0,24,24.07,24.07,0,0,1,24,0,24.33,24.33,0,0,1,48.38,24,24.59,24.59,0,0,1,24,48.38ZM53.31,228c-32,0-49.61-18.19-49.61-51.77V63.79H15.41C33.9,63.79,45,73.65,45,94.6v77.65c0,16.64,7.09,21.88,25.27,21.88H78v8.94C78,220.94,70.87,228,53.31,228Z"></path><path d="M232.18,226.48c-18.49,0-30.2-11.7-30.2-27.11V133.43c0-28-12.32-40.37-33.59-40.37-17.87,0-30.19,13.56-30.19,37.28v96.14H125.87c-17.56,0-29-11.7-29-27.11v-71.8c0-35.13,23.12-71.18,74.88-71.18,39.14,0,71.49,26.19,71.49,73.34v96.75Z"></path><path d="M353.82,230.18c-18.49,0-33.59-10.47-41.91-24.65v73.34H299c-14.79,0-29-10.79-29-28.66V149.76c0-55.16,24.65-93.37,83.2-93.37,44.07,0,75.5,40.06,75.5,82C428.7,191.66,402.2,230.18,353.82,230.18ZM346.73,93.06c-22.8,0-35.44,19.72-35.44,48.38,0,33.28,16.34,52.07,41,52.07,20,0,33.89-17.87,33.89-44.37C386.17,110,373.23,93.06,346.73,93.06Z"></path><path d="M523.37,229.26h-8.32c-39.44,0-66.56-22.19-66.56-52.69,0-29.59,21.57-52.08,82.58-52.08h14.49v-2.16c0-23.42-11.1-30.5-35.75-30.5-29.89,0-46.53,11.4-52.69,19.1h-1.54V97.68C455.58,79.19,472.22,57,516,57c37,0,70.26,17.25,70.26,74.57v38.21C586.23,204.92,560.35,229.26,523.37,229.26Zm22.49-75.19H531.07c-31.43,0-40.36,7.4-40.36,21,0,12.94,10.47,20.64,28.65,20.64,17.88,0,26.5-8.63,26.5-25.58Z"></path><path d="M637.07,280.41c-15.41,0-29-10.17-29-25.58v-8l23.42-1.54c15.1-.92,20.34-7.09,29.28-30.5-21.88-33-53.31-115.56-58.86-154.69h21.88c11.4,0,21.88,7.7,24,19.41,5.86,32.05,18.19,66.56,33.28,95.83C694.69,144.21,709.79,94,713.49,60.09h17.87c13.25,0,19.41,5.85,19.41,19.41,0,17.56-29,93.37-36.66,111.24C683.29,263.46,667,280.41,637.07,280.41Z"></path></svg>